<svg width="19" height="16" viewBox="0 0 19 16" fill="none" xmlns="http://www.w3.org/2000/svg">
<path fill-rule="evenodd" clip-rule="evenodd" d="M9.50003 2.33854C9.1165 2.33854 8.80558 2.64946 8.80558 3.03299C8.80558 3.41652 9.1165 3.72743 9.50003 3.72743C9.88356 3.72743 10.1945 3.41652 10.1945 3.03299C10.1945 2.64945 9.88356 2.33854 9.50003 2.33854ZM11.6302 4.05259C11.7782 3.74395 11.8611 3.39815 11.8611 3.03299C11.8611 1.72898 10.804 0.671875 9.50003 0.671875C8.19602 0.671875 7.13892 1.72898 7.13892 3.03299C7.13892 3.39815 7.22181 3.74395 7.36981 4.05259C4.34806 5.0011 2.1384 7.91687 1.82893 11.3663H1.09725C0.637012 11.3663 0.263916 11.7394 0.263916 12.1997C0.263916 12.6599 0.637012 13.033 1.09725 13.033H2.62386C2.62425 13.033 2.62464 13.033 2.62503 13.033C2.62541 13.033 2.6258 13.033 2.62619 13.033H16.3739C16.3743 13.033 16.3746 13.033 16.375 13.033C16.3754 13.033 16.3758 13.033 16.3762 13.033H17.9028C18.363 13.033 18.7361 12.6599 18.7361 12.1997C18.7361 11.7394 18.363 11.3663 17.9028 11.3663H17.1711C16.8617 7.91687 14.652 5.0011 11.6302 4.05259ZM15.4973 11.3663C15.1289 7.93793 12.5161 5.3941 9.50003 5.3941C6.48397 5.3941 3.87112 7.93793 3.50274 11.3663H15.4973ZM1.79169 14.4913C1.79169 14.0311 2.16479 13.658 2.62503 13.658H16.375C16.8353 13.658 17.2084 14.0311 17.2084 14.4913C17.2084 14.9516 16.8353 15.3247 16.375 15.3247H2.62503C2.16479 15.3247 1.79169 14.9516 1.79169 14.4913Z" fill="#423FFF"/>
</svg>
