<svg width="16" height="20" viewBox="0 0 16 20" fill="none" xmlns="http://www.w3.org/2000/svg">
<path d="M13 0C13.2652 0 13.5196 0.105357 13.7071 0.292893C13.8946 0.48043 14 0.734784 14 1V9H12V2H2V18H6V20H1C0.734784 20 0.48043 19.8946 0.292893 19.7071C0.105357 19.5196 0 19.2652 0 19V1C0 0.734784 0.105357 0.48043 0.292893 0.292893C0.48043 0.105357 0.734784 0 1 0H13ZM10 10C10.7053 9.9999 11.3982 10.1863 12.0082 10.5403C12.6183 10.8943 13.1239 11.4034 13.4738 12.0158C13.8236 12.6283 14.0054 13.3223 14.0005 14.0276C13.9956 14.733 13.8043 15.4245 13.446 16.032L15.656 18.242L14.243 19.657L12.031 17.447C11.5011 17.759 10.9064 17.9446 10.2931 17.9894C9.67985 18.0342 9.0645 17.937 8.49488 17.7053C7.92526 17.4737 7.41672 17.1139 7.00876 16.6538C6.6008 16.1937 6.30441 15.6457 6.14261 15.0525C5.98082 14.4592 5.95798 13.8367 6.07586 13.2332C6.19375 12.6296 6.44919 12.0614 6.82234 11.5727C7.19548 11.0839 7.67629 10.6878 8.2274 10.415C8.77851 10.1423 9.38509 10.0003 10 10ZM10 12C9.46957 12 8.96086 12.2107 8.58579 12.5858C8.21071 12.9609 8 13.4696 8 14C8 14.5304 8.21071 15.0391 8.58579 15.4142C8.96086 15.7893 9.46957 16 10 16C10.5304 16 11.0391 15.7893 11.4142 15.4142C11.7893 15.0391 12 14.5304 12 14C12 13.4696 11.7893 12.9609 11.4142 12.5858C11.0391 12.2107 10.5304 12 10 12Z" fill="#423FFF"/>
</svg>
