<svg width="21" height="20" viewBox="0 0 21 20" fill="none" xmlns="http://www.w3.org/2000/svg">
<path fill-rule="evenodd" clip-rule="evenodd" d="M2.02783 8.61068C2.02783 8.15044 2.40093 7.77734 2.86117 7.77734H18.1389C18.5992 7.77734 18.9723 8.15044 18.9723 8.61068C18.9723 13.2931 15.1825 17.0829 10.5001 17.0829C5.8176 17.0829 2.02783 13.2931 2.02783 8.61068ZM3.74488 9.44401C4.15507 12.8121 7.02022 15.4162 10.5001 15.4162C13.9799 15.4162 16.845 12.8121 17.2552 9.44401H3.74488Z" fill="#1E1E20"/>
<path fill-rule="evenodd" clip-rule="evenodd" d="M6.88892 16.9427C6.88892 16.4825 7.26201 16.1094 7.72225 16.1094H13.2778C13.738 16.1094 14.1111 16.4825 14.1111 16.9427C14.1111 17.4029 13.738 17.776 13.2778 17.776H7.72225C7.26201 17.776 6.88892 17.4029 6.88892 16.9427Z" fill="#1E1E20"/>
<path fill-rule="evenodd" clip-rule="evenodd" d="M11.75 10.6927C11.75 10.2325 12.1231 9.85938 12.5833 9.85938H17.4444C17.9047 9.85938 18.2778 10.2325 18.2778 10.6927C18.2778 11.1529 17.9047 11.526 17.4444 11.526H12.5833C12.1231 11.526 11.75 11.1529 11.75 10.6927Z" fill="#1E1E20"/>
<path fill-rule="evenodd" clip-rule="evenodd" d="M10.8819 2.22266C11.3421 2.22266 11.7152 2.59575 11.7152 3.05599C11.7152 4.09034 11.4742 4.64714 11.2627 5.12772C11.2606 5.13254 11.2585 5.13735 11.2564 5.14215C11.0887 5.523 10.9513 5.83518 10.9513 6.52821C10.9513 6.98845 10.5782 7.36155 10.118 7.36155C9.65776 7.36155 9.28467 6.98845 9.28467 6.52821C9.28467 5.49386 9.52573 4.93706 9.73718 4.45649C9.73931 4.45166 9.74142 4.44685 9.74353 4.44205C9.91116 4.0612 10.0486 3.74902 10.0486 3.05599C10.0486 2.59575 10.4217 2.22266 10.8819 2.22266Z" fill="#1E1E20"/>
<path fill-rule="evenodd" clip-rule="evenodd" d="M8.10406 2.22266C8.5643 2.22266 8.93739 2.59575 8.93739 3.05599C8.93739 4.09034 8.69633 4.64714 8.48488 5.12772C8.48275 5.13254 8.48064 5.13735 8.47853 5.14215C8.3109 5.523 8.1735 5.83518 8.1735 6.52821C8.1735 6.98845 7.80041 7.36155 7.34017 7.36155C6.87993 7.36155 6.50684 6.98845 6.50684 6.52821C6.50684 5.49386 6.7479 4.93706 6.95935 4.45649C6.96147 4.45166 6.96359 4.44685 6.9657 4.44205C7.13333 4.0612 7.27073 3.74902 7.27073 3.05599C7.27073 2.59575 7.64382 2.22266 8.10406 2.22266Z" fill="#1E1E20"/>
<path fill-rule="evenodd" clip-rule="evenodd" d="M13.6597 2.22266C14.12 2.22266 14.4931 2.59575 14.4931 3.05599C14.4931 4.09034 14.252 4.64714 14.0405 5.12772C14.0384 5.13254 14.0363 5.13735 14.0342 5.14215C13.8666 5.523 13.7292 5.83518 13.7292 6.52821C13.7292 6.98845 13.3561 7.36155 12.8958 7.36155C12.4356 7.36155 12.0625 6.98845 12.0625 6.52821C12.0625 5.49386 12.3036 4.93706 12.515 4.45649C12.5171 4.45166 12.5193 4.44685 12.5214 4.44205C12.689 4.0612 12.8264 3.74902 12.8264 3.05599C12.8264 2.59575 13.1995 2.22266 13.6597 2.22266Z" fill="#1E1E20"/>
</svg>
