<svg width="22" height="20" viewBox="0 0 22 20" fill="none" xmlns="http://www.w3.org/2000/svg">
<path d="M3 20V9.975L0.9 11.575L0 10.375L3 8.1V5.25H4.5V6.95L11 2L22 10.4L21.1 11.575L19 9.975V20H3ZM4.5 18.5H10.25V14.5H11.75V18.5H17.5V8.825L11 3.875L4.5 8.825V18.5ZM3 4C3 3.23333 3.27083 2.58333 3.8125 2.05C4.35417 1.51667 5 1.25 5.75 1.25C6.1 1.25 6.39583 1.125 6.6375 0.875C6.87917 0.625 7 0.333333 7 0H8.5C8.5 0.75 8.23333 1.39583 7.7 1.9375C7.16667 2.47917 6.51667 2.75 5.75 2.75C5.41667 2.75 5.125 2.87083 4.875 3.1125C4.625 3.35417 4.5 3.65 4.5 4H3Z" fill="#423FFF"/>
</svg>
