<svg width="22" height="16" viewBox="0 0 22 16" fill="none" xmlns="http://www.w3.org/2000/svg">
<path d="M11 12.5449C12.1833 12.5449 13.1875 12.1324 14.0125 11.3074C14.8375 10.4824 15.25 9.47826 15.25 8.29492C15.25 7.11159 14.8375 6.10742 14.0125 5.28242C13.1875 4.45742 12.1833 4.04492 11 4.04492C9.81667 4.04492 8.8125 4.45742 7.9875 5.28242C7.1625 6.10742 6.75 7.11159 6.75 8.29492C6.75 9.47826 7.1625 10.4824 7.9875 11.3074C8.8125 12.1324 9.81667 12.5449 11 12.5449ZM11 11.0949C10.2167 11.0949 9.55417 10.8241 9.0125 10.2824C8.47083 9.74076 8.2 9.07826 8.2 8.29492C8.2 7.51159 8.47083 6.84909 9.0125 6.30742C9.55417 5.76576 10.2167 5.49492 11 5.49492C11.7833 5.49492 12.4458 5.76576 12.9875 6.30742C13.5292 6.84909 13.8 7.51159 13.8 8.29492C13.8 9.07826 13.5292 9.74076 12.9875 10.2824C12.4458 10.8241 11.7833 11.0949 11 11.0949ZM11 15.7949C8.56667 15.7949 6.36667 15.1033 4.4 13.7199C2.43333 12.3366 0.966667 10.5283 0 8.29492C0.966667 6.06159 2.43333 4.25325 4.4 2.86992C6.36667 1.48659 8.56667 0.794922 11 0.794922C13.4333 0.794922 15.6333 1.48659 17.6 2.86992C19.5667 4.25325 21.0333 6.06159 22 8.29492C21.0333 10.5283 19.5667 12.3366 17.6 13.7199C15.6333 15.1033 13.4333 15.7949 11 15.7949ZM11 14.2949C13.0167 14.2949 14.8708 13.7491 16.5625 12.6574C18.2542 11.5658 19.5417 10.1116 20.425 8.29492C19.5417 6.47826 18.2542 5.02409 16.5625 3.93242C14.8708 2.84075 13.0167 2.29492 11 2.29492C8.98333 2.29492 7.12917 2.84075 5.4375 3.93242C3.74583 5.02409 2.45 6.47826 1.55 8.29492C2.45 10.1116 3.74583 11.5658 5.4375 12.6574C7.12917 13.7491 8.98333 14.2949 11 14.2949Z" fill="#1E1E20"/>
</svg>
