<svg width="20" height="18" viewBox="0 0 20 18" fill="none" xmlns="http://www.w3.org/2000/svg">
<path d="M13.1042 9.77116L12.1875 8.85449C12.5487 7.86838 12.3612 7.04894 11.625 6.39616C10.8889 5.74338 10.0903 5.57671 9.22921 5.89616L8.31254 4.97949C8.54865 4.82671 8.81254 4.7156 9.10421 4.64616C9.39587 4.57671 9.69448 4.54199 10 4.54199C10.9862 4.54199 11.823 4.88574 12.5105 5.57324C13.198 6.26074 13.5417 7.09755 13.5417 8.08366C13.5417 8.38921 13.5035 8.6913 13.4271 8.98991C13.3507 9.28852 13.2431 9.54894 13.1042 9.77116ZM15.7917 12.4587L14.9584 11.6253C15.6389 11.1253 16.2327 10.5663 16.7396 9.94824C17.2466 9.33019 17.6181 8.70866 17.8542 8.08366C17.1598 6.54199 16.1181 5.32324 14.7292 4.42741C13.3403 3.53158 11.8334 3.08366 10.2084 3.08366C9.62504 3.08366 9.02782 3.13921 8.41671 3.25033C7.8056 3.36144 7.32643 3.49338 6.97921 3.64616L6.02087 2.66699C6.50698 2.44477 7.12851 2.25033 7.88546 2.08366C8.6424 1.91699 9.38198 1.83366 10.1042 1.83366C12.0903 1.83366 13.9063 2.39963 15.5521 3.53158C17.198 4.66352 18.4028 6.18088 19.1667 8.08366C18.8056 8.97255 18.3403 9.78505 17.7709 10.5212C17.2014 11.2573 16.5417 11.9031 15.7917 12.4587ZM17 17.167L13.5 13.7295C13.0139 13.9239 12.4653 14.0732 11.8542 14.1774C11.2431 14.2816 10.625 14.3337 10 14.3337C7.97226 14.3337 6.13198 13.7677 4.47921 12.6357C2.82643 11.5038 1.61115 9.98644 0.833374 8.08366C1.11115 7.36144 1.49657 6.65658 1.98962 5.96908C2.48268 5.28158 3.08337 4.62533 3.79171 4.00033L1.16671 1.37533L2.04171 0.479492L17.8125 16.2503L17 17.167ZM4.64587 4.87533C4.13198 5.25033 3.63546 5.74338 3.15629 6.35449C2.67712 6.9656 2.33337 7.54199 2.12504 8.08366C2.83337 9.62533 3.89935 10.8441 5.32296 11.7399C6.74657 12.6357 8.36115 13.0837 10.1667 13.0837C10.625 13.0837 11.0764 13.0559 11.5209 13.0003C11.9653 12.9448 12.2987 12.8614 12.5209 12.7503L11.1875 11.417C11.0348 11.4864 10.8473 11.5385 10.625 11.5732C10.4028 11.608 10.1945 11.6253 10 11.6253C9.02782 11.6253 8.19448 11.285 7.50004 10.6045C6.8056 9.92394 6.45837 9.08366 6.45837 8.08366C6.45837 7.87533 6.47573 7.66699 6.51046 7.45866C6.54518 7.25033 6.59726 7.06283 6.66671 6.89616L4.64587 4.87533Z" fill="#1E1E20"/>
</svg>
