<svg width="15" height="18" viewBox="0 0 15 18" fill="none" xmlns="http://www.w3.org/2000/svg">
<path d="M15 0.667969V17.3346H13.3333V11.5013H10V5.66797C10 4.34189 10.5268 3.07012 11.4645 2.13243C12.4021 1.19475 13.6739 0.667969 15 0.667969ZM13.3333 2.7763C12.6417 3.16797 11.6667 4.14297 11.6667 5.66797V9.83464H13.3333V2.7763ZM5 10.5846V17.3346H3.33333V10.5846C2.39234 10.3922 1.54666 9.88078 0.939287 9.13675C0.331914 8.39272 0.000117555 7.46176 0 6.5013V1.5013H1.66667V7.33464H3.33333V1.5013H5V7.33464H6.66667V1.5013H8.33333V6.5013C8.33322 7.46176 8.00142 8.39272 7.39405 9.13675C6.78667 9.88078 5.94099 10.3922 5 10.5846Z" fill="#1E1E20"/>
</svg>
