<svg width="19" height="20" viewBox="0 0 19 20" fill="none" xmlns="http://www.w3.org/2000/svg">
<path d="M18.6023 8.39766C18.4156 5.90118 17.7997 3.50973 16.8496 1.19849C16.7761 1.01897 16.6395 0.920144 16.482 0.833252H10.4664C10.2477 0.933035 10.1298 1.11016 10.0419 1.33026C9.41363 2.90148 8.77817 4.82791 8.44396 7.35066C8.38524 7.35066 8.3227 7.35066 8.26015 7.35066C7.50295 7.35066 6.74527 7.3497 5.98806 7.35066C5.5493 7.35113 5.33112 7.62422 5.40512 8.06489C5.60039 9.22218 5.79184 10.3795 5.98472 11.5372C5.98949 11.5664 5.98806 11.5964 5.99045 11.6471H5.77751C4.20295 11.6471 2.62886 11.6533 1.05429 11.6418C0.721525 11.6394 0.476603 11.7316 0.333374 12.0409V18.7727C0.418834 18.9498 0.550605 19.0806 0.727254 19.1666H16.4825C16.7078 19.0639 16.8224 18.8777 16.9126 18.6538C17.6063 16.9313 18.1263 15.159 18.4017 13.3224C18.5144 12.5699 18.5602 11.8079 18.6371 11.0503C18.6447 10.9748 18.6567 10.8994 18.6667 10.824V9.17683C18.6452 8.91711 18.6218 8.65786 18.6023 8.39814V8.39766ZM10.7566 2.47084C10.8249 2.28703 10.854 2.03829 10.9887 1.94328C11.1219 1.8497 11.3658 1.90843 11.5606 1.90795C12.9743 1.90652 14.388 1.90938 15.8016 1.90365C15.9387 1.90317 16.0003 1.94376 16.0442 2.07027C16.1721 2.44076 16.312 2.80695 16.4552 3.19653C16.0681 3.19653 15.7062 3.19606 15.3443 3.19653C14.9513 3.19749 14.7451 3.39228 14.7269 3.77852C14.695 4.46125 14.1426 4.99024 13.4656 4.98642C12.7986 4.9826 12.2539 4.45361 12.2223 3.77804C12.2047 3.4004 11.997 3.19797 11.6222 3.19653C11.2584 3.1951 10.8951 3.19653 10.5007 3.19653C10.5891 2.94397 10.6693 2.70621 10.7566 2.47036V2.47084ZM7.48051 18.0804H1.41571V14.8793H7.48051V18.0804ZM7.48672 13.7864H1.42239V12.7342H7.48719V13.7864H7.48672ZM11.1028 18.0838H8.5829V17.031H11.1028V18.0838ZM8.56857 15.9377V15.741C8.56857 14.6195 8.55473 13.4981 8.57478 12.377C8.58337 11.8891 8.36471 11.6041 7.83047 11.6451C7.62278 11.6614 7.41271 11.6537 7.20455 11.6432C7.15872 11.6408 7.08281 11.5864 7.07565 11.5463C6.90043 10.5246 6.73285 9.50148 6.56432 8.47882C6.56241 8.46784 6.56718 8.45543 6.57005 8.43442H12.4448C12.0271 10.9419 11.6108 13.4379 11.194 15.9377H8.56857ZM17.5299 11.5482C17.3872 13.4011 16.9957 15.201 16.396 16.9575C16.2786 17.3013 16.1497 17.6412 16.016 17.9787C15.9964 18.0284 15.921 18.0881 15.8714 18.0881C14.6658 18.0938 13.4608 18.0924 12.2553 18.0919C12.2386 18.0919 12.2219 18.0852 12.2013 18.0809C12.1359 17.0874 12.1942 16.1058 12.4319 15.1366C12.6463 15.202 12.8612 15.2922 13.0851 15.3314C13.9487 15.4818 14.663 15.1796 15.2321 14.5417C15.9792 13.7053 16.2199 12.6984 16.143 11.6022C16.112 11.1591 16.0112 10.729 15.8265 10.3241C15.3729 9.33247 14.6735 8.65309 13.5152 8.5576C13.5434 8.38143 13.5668 8.22197 13.5945 8.06394C13.6728 7.61849 13.4484 7.35161 12.991 7.35161C11.9111 7.35113 10.8311 7.35161 9.75069 7.35161H9.52773C9.5812 7.01025 9.61844 6.6813 9.68719 6.35856C9.82469 5.71211 9.98177 5.06949 10.124 4.42401C10.1513 4.30035 10.2057 4.26407 10.3303 4.26884C10.6163 4.27887 10.9023 4.27218 11.1921 4.27218C11.5793 5.42757 12.3556 6.09883 13.5926 6.04727C14.7145 6.00048 15.4092 5.33685 15.7525 4.27218C16.0638 4.27218 16.3798 4.26598 16.6949 4.27935C16.7403 4.28126 16.8042 4.37053 16.821 4.43021C17.0921 5.40799 17.2931 6.39961 17.423 7.40604C17.6001 8.78342 17.6378 10.1637 17.5309 11.5487L17.5299 11.5482ZM12.6425 13.7678C12.8683 12.4472 13.0841 11.1247 13.3037 9.80322C13.3114 9.75643 13.3262 9.71107 13.3414 9.64996C13.8437 9.60795 14.2056 9.83711 14.4987 10.1928C15.2774 11.1372 15.2779 12.7881 14.5059 13.7401C14.0127 14.3484 13.3371 14.4653 12.7566 14.0481C12.6525 13.9731 12.6191 13.9024 12.642 13.7678H12.6425Z" fill="#1E1E20"/>
</svg>
