<svg width="22" height="14" viewBox="0 0 22 14" fill="none" xmlns="http://www.w3.org/2000/svg">
<path d="M1.5 14C1.0875 14 0.734375 13.8531 0.440625 13.5594C0.146875 13.2656 0 12.9125 0 12.5V1.5C0 1.0875 0.146875 0.734375 0.440625 0.440625C0.734375 0.146875 1.0875 0 1.5 0H12.5C12.9125 0 13.2656 0.146875 13.5594 0.440625C13.8531 0.734375 14 1.0875 14 1.5V12.5C14 12.9125 13.8531 13.2656 13.5594 13.5594C13.2656 13.8531 12.9125 14 12.5 14H1.5ZM17 6C16.7167 6 16.4792 5.90417 16.2875 5.7125C16.0958 5.52083 16 5.28333 16 5V1C16 0.716667 16.0958 0.479167 16.2875 0.2875C16.4792 0.0958333 16.7167 0 17 0H21C21.2833 0 21.5208 0.0958333 21.7125 0.2875C21.9042 0.479167 22 0.716667 22 1V5C22 5.28333 21.9042 5.52083 21.7125 5.7125C21.5208 5.90417 21.2833 6 21 6H17ZM17.5 4.5H20.5V1.5H17.5V4.5ZM1.5 12.5H12.5V1.5H1.5V12.5ZM3 10H11L8.375 6.5L6.5 9L5.125 7.175L3 10ZM17 14C16.7167 14 16.4792 13.9042 16.2875 13.7125C16.0958 13.5208 16 13.2833 16 13V9C16 8.71667 16.0958 8.47917 16.2875 8.2875C16.4792 8.09583 16.7167 8 17 8H21C21.2833 8 21.5208 8.09583 21.7125 8.2875C21.9042 8.47917 22 8.71667 22 9V13C22 13.2833 21.9042 13.5208 21.7125 13.7125C21.5208 13.9042 21.2833 14 21 14H17ZM17.5 12.5H20.5V9.5H17.5V12.5Z" fill="#423FFF"/>
</svg>
