<svg width="36" height="36" viewBox="0 0 36 36" fill="none" xmlns="http://www.w3.org/2000/svg">
<path d="M4.75 5.25V8.9875H3.5V3.5H8.9875V4.75H5.25H4.75V5.25ZM5.25 31.25H8.9875V32.5H3.5V27.0125H4.75V30.75V31.25H5.25ZM31.25 30.75V27.0125H32.5V32.5H27.0125V31.25H30.75H31.25V30.75ZM30.75 4.75H27.0125V3.5H32.5V8.9875H31.25V5.25V4.75H30.75ZM27.05 27.0875H28.4125V28.45H27.05V27.0875ZM26.05 24.725V26.0875H24.6875V24.725H26.05ZM21.325 21.3625H19.9625V20H21.325V21.3625ZM24.6875 21.3625V20H26.05V21.3625H24.6875ZM22.325 22.3625H23.6875V23.725H22.325V22.3625ZM21.325 26.0875H19.9625V24.725H21.325V26.0875ZM23.6875 27.0875V28.45H22.325V27.0875H23.6875ZM27.05 22.3625H28.4125V23.725H27.05V22.3625ZM14.625 27.575H15.125V27.075V21.375V20.875H14.625H8.925H8.425V21.375V27.075V27.575H8.925H14.625ZM14.625 15.125H15.125V14.625V8.925V8.425H14.625H8.925H8.425V8.925V14.625V15.125H8.925H14.625ZM27.0375 15.125H27.5375V14.625V8.925V8.425H27.0375H21.3375H20.8375V8.925V14.625V15.125H21.3375H27.0375ZM28.4125 7.55V16H19.9625V7.55H28.4125ZM16 20V28.45H7.55V20H16ZM16 7.55V16H7.55V7.55H16Z" fill="#FCFCFC" stroke="#FCFCFC"/>
</svg>
