<svg width="24" height="24" viewBox="0 0 24 24" fill="none" xmlns="http://www.w3.org/2000/svg">
<path d="M5.63453 12.1885L2.21533 8.76934L5.63453 5.35977L9.04411 8.76934L5.63453 12.1885ZM9.40378 21.5001V16.702C8.40635 16.6187 7.41565 16.5042 6.43168 16.3587C5.4477 16.2132 4.47045 16.0135 3.49993 15.7597L3.86531 14.2597C5.20762 14.611 6.55215 14.8559 7.89888 14.9943C9.24562 15.1328 10.6123 15.202 11.9989 15.202C13.3855 15.202 14.7525 15.1328 16.0999 14.9943C17.4473 14.8559 18.7922 14.611 20.1345 14.2597L20.4999 15.7597C19.5294 16.0135 18.5521 16.2132 17.5681 16.3587C16.5842 16.5042 15.5935 16.6187 14.596 16.702V21.5001H9.40378ZM5.63453 10.0905L6.94608 8.76934L5.63453 7.45779L4.31336 8.76934L5.63453 10.0905ZM11.9999 7.19242C11.2627 7.19242 10.6361 6.93441 10.1201 6.41839C9.60409 5.90236 9.34608 5.27576 9.34608 4.53859C9.34608 3.80142 9.60409 3.17482 10.1201 2.65879C10.6361 2.14277 11.2627 1.88477 11.9999 1.88477C12.7371 1.88477 13.3637 2.14277 13.8797 2.65879C14.3957 3.17482 14.6537 3.80142 14.6537 4.53859C14.6537 5.27576 14.3957 5.90236 13.8797 6.41839C13.3637 6.93441 12.7371 7.19242 11.9999 7.19242ZM11.9999 13.8943C11.4922 13.8943 11.0576 13.7135 10.6961 13.352C10.3345 12.9905 10.1538 12.5559 10.1538 12.0482C10.1538 11.5405 10.3345 11.1059 10.6961 10.7443C11.0576 10.3828 11.4922 10.202 11.9999 10.202C12.5076 10.202 12.9422 10.3828 13.3038 10.7443C13.6653 11.1059 13.8461 11.5405 13.8461 12.0482C13.8461 12.5559 13.6653 12.9905 13.3038 13.352C12.9422 13.7135 12.5076 13.8943 11.9999 13.8943ZM11.9999 5.69244C12.3217 5.69244 12.5945 5.58058 12.8182 5.35687C13.0419 5.13315 13.1538 4.86039 13.1538 4.53859C13.1538 4.21679 13.0419 3.94403 12.8182 3.72032C12.5945 3.4966 12.3217 3.38474 11.9999 3.38474C11.6781 3.38474 11.4053 3.4966 11.1816 3.72032C10.9579 3.94403 10.8461 4.21679 10.8461 4.53859C10.8461 4.86039 10.9579 5.13315 11.1816 5.35687C11.4053 5.58058 11.6781 5.69244 11.9999 5.69244ZM17.0211 11.9232L15.5134 9.26934L17.0211 6.61552H20.0076L21.5153 9.26934L20.0076 11.9232H17.0211ZM17.8762 10.4232H19.1557L19.7922 9.26934L19.1525 8.11549H17.873L17.2364 9.26934L17.8762 10.4232Z" fill="#ACACB0"/>
</svg>
