<svg width="20" height="20" viewBox="0 0 20 20" fill="none" xmlns="http://www.w3.org/2000/svg">
<path fill-rule="evenodd" clip-rule="evenodd" d="M19.2237 1.36464L18.6843 1.31559L18.6352 0.776153C18.7953 0.761599 18.9536 0.818907 19.0673 0.932579C19.1809 1.04625 19.2382 1.20454 19.2237 1.36464ZM16.4363 5.42651C16.6718 5.362 16.9152 5.28331 17.1476 5.18762C17.4851 5.04868 17.837 4.85872 18.1024 4.59335C18.3677 4.32797 18.5577 3.97606 18.6966 3.63861C18.8383 3.29449 18.9427 2.92607 19.0191 2.59529C19.0958 2.26286 19.1466 1.95765 19.1783 1.73595C19.1941 1.62474 19.2053 1.53367 19.2126 1.46963C19.2163 1.43759 19.219 1.41225 19.2208 1.39448L19.2229 1.37358L19.2234 1.36758L19.2236 1.36572L19.2237 1.36464C19.2237 1.36453 19.2237 1.36464 18.6843 1.31559C18.6352 0.776153 18.6353 0.776144 18.6352 0.776153L18.6341 0.776252L18.6323 0.776425L18.6263 0.776995L18.6054 0.779069C18.5876 0.780878 18.5623 0.783559 18.5302 0.787209C18.4662 0.794506 18.3751 0.805701 18.2639 0.821587C18.0422 0.85326 17.737 0.904069 17.4046 0.980782C17.0738 1.05712 16.7054 1.16152 16.3612 1.30321C16.0238 1.44216 15.6719 1.63212 15.4065 1.89749C15.1411 2.16287 14.9512 2.51478 14.8122 2.85223C14.7165 3.08462 14.6379 3.32809 14.5733 3.56357C14.4206 3.26495 14.2297 2.98632 14.047 2.75006C13.8514 2.49705 13.6571 2.28219 13.5122 2.13085C13.4394 2.05486 13.3784 1.9941 13.3348 1.95168C13.313 1.93045 13.2955 1.91377 13.283 1.90201L13.2682 1.88812L13.2638 1.88402L13.2624 1.8827L13.2617 1.88204C13.2616 1.88196 13.2615 1.88188 12.8948 2.28051L13.2617 1.88204C13.0544 1.69132 12.7353 1.69116 12.528 1.88188L12.8948 2.28051C12.528 1.88188 12.5281 1.8818 12.528 1.88188L12.5271 1.8827L12.5257 1.88402L12.5213 1.88812L12.5065 1.90201C12.4941 1.91377 12.4766 1.93045 12.4548 1.95168C12.4112 1.9941 12.3501 2.05486 12.2774 2.13085C12.1325 2.28219 11.9382 2.49705 11.7426 2.75006C11.5481 3.00154 11.3443 3.30103 11.1872 3.62153C11.0756 3.84911 10.9787 4.1052 10.9333 4.37446C10.9296 4.37085 10.926 4.36734 10.9225 4.36396C10.9007 4.34273 10.8832 4.32605 10.8708 4.31429L10.856 4.3004L10.8516 4.2963L10.8501 4.29499L10.8494 4.29432C10.8493 4.29424 10.8492 4.29416 10.4825 4.69279L10.8494 4.29432C10.6421 4.1036 10.3231 4.10344 10.1158 4.29416L10.4825 4.69279C10.1158 4.29416 10.1159 4.29408 10.1158 4.29416L10.1149 4.29499L10.1134 4.2963L10.109 4.3004L10.0942 4.31429C10.0818 4.32605 10.0643 4.34273 10.0425 4.36396C9.99892 4.40638 9.93785 4.46715 9.8651 4.54313C9.7202 4.69447 9.52592 4.90933 9.3303 5.16234C9.13585 5.41382 8.93202 5.71331 8.77491 6.03381C8.66335 6.26139 8.56643 6.51748 8.52098 6.78674C8.51728 6.78313 8.5137 6.77962 8.51022 6.77624C8.48841 6.75501 8.47093 6.73833 8.45849 6.72657L8.44369 6.71268L8.43928 6.70858L8.43713 6.7066C8.43704 6.70652 8.43696 6.70644 8.07022 7.10507L8.43713 6.7066C8.22983 6.51588 7.91078 6.51572 7.70348 6.70644L8.07022 7.10507C7.70348 6.70644 7.70357 6.70636 7.70348 6.70644L7.70116 6.70858L7.69675 6.71268L7.68195 6.72657C7.66952 6.73833 7.65203 6.75501 7.63022 6.77624C7.58664 6.81866 7.52557 6.87943 7.45282 6.95541C7.30792 7.10675 7.11364 7.32161 6.91802 7.57462C6.72358 7.8261 6.51974 8.12559 6.36263 8.44609C6.25107 8.67367 6.15415 8.92976 6.1087 9.19903C6.105 9.19541 6.10142 9.1919 6.09794 9.18852C6.07613 9.16729 6.05865 9.15061 6.04621 9.13885L6.03141 9.12496L6.027 9.12086L6.02485 9.11888C6.02476 9.1188 6.02468 9.11872 5.65794 9.51735L6.02485 9.11888C5.81755 8.92816 5.4985 8.928 5.2912 9.11872L5.65794 9.51735C5.2912 9.11872 5.29129 9.11864 5.2912 9.11872L5.28888 9.12086L5.28447 9.12496L5.26967 9.13885C5.25724 9.15061 5.23975 9.16729 5.21794 9.18852C5.17436 9.23094 5.11329 9.29171 5.04054 9.36769C4.89564 9.51903 4.70136 9.73389 4.50574 9.9869C4.3113 10.2384 4.10746 10.5379 3.95035 10.8584C3.79553 11.1742 3.66891 11.545 3.66891 11.9296C3.66891 12.3143 3.79553 12.685 3.95035 13.0009C4.10746 13.3214 4.3113 13.6209 4.50574 13.8724C4.6421 14.0487 4.7778 14.2065 4.89659 14.3372L0.93282 18.301C0.721286 18.5125 0.721286 18.8555 0.93282 19.067C1.14435 19.2786 1.48732 19.2786 1.69885 19.067L5.66262 15.1033C5.79331 15.222 5.95114 15.3578 6.12749 15.4941C6.37897 15.6886 6.67847 15.8924 6.99896 16.0495C7.3148 16.2043 7.68555 16.3309 8.07022 16.3309C8.45489 16.3309 8.82564 16.2043 9.14148 16.0495C9.46197 15.8924 9.76147 15.6886 10.0129 15.4941C10.266 15.2985 10.4808 15.1042 10.6322 14.9593C10.7081 14.8866 10.7689 14.8255 10.8113 14.7819C10.8326 14.7601 10.8492 14.7426 10.861 14.7302L10.8749 14.7154L10.879 14.711L10.8803 14.7095L10.881 14.7088C10.8811 14.7087 10.8811 14.7086 10.4825 14.3419L10.881 14.7088C11.0717 14.5015 11.0718 14.1825 10.8811 13.9752L10.4825 14.3419C10.8811 13.9752 10.8812 13.9753 10.8811 13.9752L10.879 13.9728L10.8749 13.9684L10.861 13.9536C10.8492 13.9412 10.8326 13.9237 10.8113 13.9019C10.8079 13.8984 10.8044 13.8948 10.8008 13.8911C11.0701 13.8457 11.3262 13.7488 11.5538 13.6372C11.8743 13.4801 12.1737 13.2763 12.4252 13.0818C12.6782 12.8862 12.8931 12.6919 13.0444 12.547C13.1204 12.4743 13.1812 12.4132 13.2236 12.3696C13.2448 12.3478 13.2615 12.3303 13.2733 12.3179L13.2872 12.3031L13.2913 12.2987L13.2926 12.2973L13.2932 12.2965C13.2933 12.2965 13.2934 12.2964 12.8948 11.9296L13.2932 12.2965C13.484 12.0892 13.4841 11.7702 13.2934 11.5629L12.8948 11.9296C13.2934 11.5629 13.2935 11.563 13.2934 11.5629L13.2926 11.562L13.2913 11.5606L13.2872 11.5562L13.2733 11.5414C13.2615 11.5289 13.2448 11.5114 13.2236 11.4896C13.2202 11.4862 13.2167 11.4826 13.2131 11.4789C13.4824 11.4334 13.7385 11.3365 13.966 11.2249C14.2865 11.0678 14.586 10.864 14.8375 10.6695C15.0905 10.4739 15.3054 10.2796 15.4567 10.1347C15.5327 10.062 15.5935 10.0009 15.6359 9.95735C15.6571 9.93554 15.6738 9.91805 15.6856 9.90562L15.6995 9.89082L15.7035 9.88641L15.7049 9.88498L15.7055 9.88426C15.7056 9.88417 15.7057 9.88409 15.3071 9.51735L15.7055 9.88426C15.8962 9.67696 15.8964 9.35791 15.7057 9.15061L15.3071 9.51735C15.7057 9.15061 15.7058 9.1507 15.7057 9.15061L15.7035 9.14829L15.6995 9.14388L15.6856 9.12908C15.6738 9.11664 15.6571 9.09916 15.6359 9.07735C15.6325 9.07387 15.629 9.07029 15.6254 9.06659C15.8946 9.02113 16.1507 8.92422 16.3783 8.81266C16.6988 8.65555 16.9983 8.45171 17.2498 8.25727C17.5028 8.06165 17.7177 7.86737 17.869 7.72247C17.945 7.64972 18.0058 7.58865 18.0482 7.54507C18.0694 7.52326 18.0861 7.50577 18.0978 7.49334L18.1117 7.47854L18.1158 7.47413L18.1171 7.4727L18.1178 7.47198C18.1179 7.47189 18.118 7.47181 17.7193 7.10507L18.1178 7.47198C18.3085 7.26468 18.3087 6.94563 18.118 6.73833L17.7193 7.10507C18.118 6.73833 18.1181 6.73842 18.118 6.73833L18.1158 6.73601L18.1117 6.7316L18.0978 6.7168C18.0861 6.70436 18.0694 6.68688 18.0482 6.66507C18.0058 6.62149 17.945 6.56042 17.869 6.48767C17.7177 6.34277 17.5028 6.14849 17.2498 5.95287C17.0135 5.77019 16.7349 5.57923 16.4363 5.42651ZM15.4636 4.53628C15.5876 4.5136 15.7218 4.48651 15.8607 4.45447C16.1571 4.38606 16.4641 4.29748 16.7351 4.18589C17.0128 4.07155 17.2157 3.9479 17.3363 3.82732C17.4569 3.70673 17.5806 3.50382 17.6949 3.22613C17.8065 2.95512 17.8951 2.64811 17.9635 2.35169C17.9955 2.21282 18.0226 2.07862 18.0453 1.95456C17.9212 1.97724 17.787 2.00433 17.6482 2.03637C17.3517 2.10478 17.0447 2.19336 16.7737 2.30495C16.496 2.41929 16.2931 2.54293 16.1725 2.66352C16.0519 2.78411 15.9283 2.98702 15.814 3.26471C15.7024 3.53571 15.6138 3.84273 15.5454 4.13915C15.5133 4.27801 15.4862 4.41221 15.4636 4.53628ZM12.8948 6.327C12.9873 6.22343 13.0889 6.10358 13.1899 5.97286C13.3573 5.75637 13.5153 5.52033 13.6296 5.28721C13.7462 5.04943 13.8005 4.84847 13.8005 4.69279C13.8005 4.53711 13.7462 4.33614 13.6296 4.09837C13.5153 3.86524 13.3573 3.62921 13.1899 3.41271C13.0889 3.28199 12.9873 3.16214 12.8948 3.05858C12.8023 3.16214 12.7007 3.28199 12.5996 3.41271C12.4322 3.62921 12.2742 3.86524 12.1599 4.09837C12.0434 4.33614 11.9891 4.53711 11.9891 4.69279C11.9891 4.84847 12.0434 5.04943 12.1599 5.28721C12.2742 5.52033 12.4322 5.75637 12.5996 5.97286C12.7007 6.10358 12.8023 6.22343 12.8948 6.327ZM10.4825 8.73928C10.575 8.63571 10.6766 8.51586 10.7777 8.38515C10.9451 8.16865 11.1031 7.93261 11.2173 7.69949C11.3339 7.46171 11.3882 7.26075 11.3882 7.10507C11.3882 6.94939 11.3339 6.74843 11.2173 6.51065C11.1031 6.27752 10.9451 6.04149 10.7777 5.82499C10.6766 5.69427 10.575 5.57442 10.4825 5.47086C10.39 5.57442 10.2884 5.69427 10.1873 5.82499C10.0199 6.04149 9.86193 6.27752 9.74766 6.51065C9.6311 6.74843 9.5768 6.94939 9.5768 7.10507C9.5768 7.26075 9.6311 7.46171 9.74766 7.69949C9.86193 7.93261 10.0199 8.16865 10.1873 8.38515C10.2884 8.51586 10.39 8.63571 10.4825 8.73928ZM8.07022 11.1516C8.16275 11.048 8.26432 10.9281 8.36539 10.7974C8.53278 10.5809 8.69079 10.3449 8.80506 10.1118C8.92162 9.87399 8.97592 9.67303 8.97592 9.51735C8.97592 9.36167 8.92162 9.16071 8.80506 8.92293C8.69079 8.68981 8.53278 8.45377 8.36539 8.23727C8.26432 8.10655 8.16275 7.9867 8.07022 7.88314C7.97769 7.9867 7.87612 8.10655 7.77505 8.23727C7.60766 8.45377 7.44965 8.68981 7.33538 8.92293C7.21882 9.16071 7.16452 9.36167 7.16452 9.51735C7.16452 9.67303 7.21882 9.87399 7.33538 10.1118C7.44965 10.3449 7.60766 10.5809 7.77505 10.7974C7.87612 10.9281 7.97769 11.048 8.07022 11.1516ZM5.65794 13.5638C5.75047 13.4603 5.85204 13.3404 5.95311 13.2097C6.1205 12.9932 6.27851 12.7572 6.39278 12.5241C6.50934 12.2863 6.56364 12.0853 6.56364 11.9296C6.56364 11.7739 6.50934 11.573 6.39278 11.3352C6.27851 11.1021 6.1205 10.8661 5.95311 10.6496C5.85204 10.5188 5.75047 10.399 5.65794 10.2954C5.56541 10.399 5.46384 10.5188 5.36277 10.6496C5.19538 10.8661 5.03737 11.1021 4.9231 11.3352C4.80654 11.573 4.75224 11.7739 4.75224 11.9296C4.75224 12.0853 4.80654 12.2863 4.9231 12.5241C5.03737 12.7572 5.19538 12.9932 5.36277 13.2097C5.46384 13.3404 5.56541 13.4603 5.65794 13.5638ZM6.43601 14.3419C6.53958 14.4344 6.65942 14.536 6.79014 14.6371C7.00664 14.8045 7.24268 14.9625 7.4758 15.0768C7.71358 15.1933 7.91454 15.2476 8.07022 15.2476C8.2259 15.2476 8.42686 15.1933 8.66464 15.0768C8.89776 14.9625 9.1338 14.8045 9.3503 14.6371C9.48102 14.536 9.60086 14.4344 9.70443 14.3419C9.60086 14.2494 9.48102 14.1478 9.3503 14.0467C9.1338 13.8793 8.89776 13.7213 8.66464 13.6071C8.42686 13.4905 8.2259 13.4362 8.07022 13.4362C7.91454 13.4362 7.71358 13.4905 7.4758 13.6071C7.24268 13.7213 7.00664 13.8793 6.79014 14.0467C6.65942 14.1478 6.53958 14.2494 6.43601 14.3419ZM8.84829 11.9296C8.95186 12.0222 9.0717 12.1237 9.20242 12.2248C9.41892 12.3922 9.65496 12.5502 9.88808 12.6645C10.1259 12.781 10.3268 12.8353 10.4825 12.8353C10.6382 12.8353 10.8391 12.781 11.0769 12.6645C11.31 12.5502 11.5461 12.3922 11.7626 12.2248C11.8933 12.1237 12.0131 12.0222 12.1167 11.9296C12.0131 11.8371 11.8933 11.7355 11.7626 11.6345C11.5461 11.4671 11.31 11.3091 11.0769 11.1948C10.8391 11.0782 10.6382 11.0239 10.4825 11.0239C10.3268 11.0239 10.1259 11.0782 9.88808 11.1948C9.65496 11.3091 9.41892 11.4671 9.20242 11.6345C9.0717 11.7355 8.95186 11.8371 8.84829 11.9296ZM11.2606 9.51735C11.3641 9.60988 11.484 9.71144 11.6147 9.81252C11.8312 9.97991 12.0672 10.1379 12.3004 10.2522C12.5381 10.3687 12.7391 10.4231 12.8948 10.4231C13.0505 10.4231 13.2514 10.3687 13.4892 10.2522C13.7223 10.1379 13.9584 9.97991 14.1749 9.81252C14.3056 9.71144 14.4254 9.60988 14.529 9.51735C14.4254 9.42482 14.3056 9.32325 14.1749 9.22218C13.9584 9.05478 13.7223 8.89678 13.4892 8.78251C13.2514 8.66595 13.0505 8.61165 12.8948 8.61165C12.7391 8.61165 12.5381 8.66595 12.3004 8.78251C12.0672 8.89678 11.8312 9.05478 11.6147 9.22218C11.484 9.32325 11.3641 9.42482 11.2606 9.51735ZM13.6729 7.10507C13.7764 7.1976 13.8963 7.29916 14.027 7.40024C14.2435 7.56763 14.4795 7.72564 14.7126 7.83991C14.9504 7.95647 15.1514 8.01077 15.3071 8.01077C15.4627 8.01077 15.6637 7.95647 15.9015 7.83991C16.1346 7.72564 16.3706 7.56763 16.5871 7.40024C16.7179 7.29916 16.8377 7.1976 16.9413 7.10507C16.8377 7.01254 16.7179 6.91097 16.5871 6.8099C16.3706 6.6425 16.1346 6.4845 15.9015 6.37022C15.6637 6.25367 15.4627 6.19937 15.3071 6.19937C15.1514 6.19937 14.9504 6.25367 14.7126 6.37022C14.4795 6.4845 14.2435 6.6425 14.027 6.8099C13.8963 6.91097 13.7764 7.01254 13.6729 7.10507Z" fill="#1E1E20"/>
</svg>
