<svg width="16" height="20" viewBox="0 0 16 20" fill="none" xmlns="http://www.w3.org/2000/svg">
<path d="M8.0051 12.15C8.61837 12.15 9.14167 11.9375 9.575 11.5125C10.0083 11.0875 10.225 10.5625 10.225 9.9375C10.225 9.3125 10.0066 8.78333 9.5699 8.35C9.13318 7.91667 8.60818 7.7 7.9949 7.7C7.38163 7.7 6.85833 7.91667 6.425 8.35C5.99167 8.78333 5.775 9.3125 5.775 9.9375C5.775 10.5625 5.99337 11.0875 6.4301 11.5125C6.86682 11.9375 7.39182 12.15 8.0051 12.15ZM8 18.45C8.78333 18.1833 9.58333 17.7625 10.4 17.1875C11.2167 16.6125 11.875 15.9583 12.375 15.225L10.075 13.025C9.75833 13.2083 9.42366 13.3583 9.07098 13.475C8.71828 13.5917 8.36128 13.65 8 13.65C6.96667 13.65 6.0875 13.2917 5.3625 12.575C4.6375 11.8583 4.275 10.9792 4.275 9.9375C4.275 8.89583 4.6375 8.0125 5.3625 7.2875C6.0875 6.5625 6.96667 6.2 8 6.2C9.03333 6.2 9.9125 6.5625 10.6375 7.2875C11.3625 8.0125 11.725 8.9 11.725 9.95C11.725 10.3 11.675 10.65 11.575 11C11.475 11.35 11.3167 11.6667 11.1 11.95L13.2 13.95C13.6 13.2333 13.9167 12.4453 14.15 11.5858C14.3833 10.7263 14.5 9.84768 14.5 8.95V3.9879L8 1.625L1.5 3.9879V8.95C1.5 11.1333 2.10417 13.1042 3.3125 14.8625C4.52083 16.6208 6.08333 17.8167 8 18.45ZM8 20C5.66667 19.4167 3.75 18.0625 2.25 15.9375C0.75 13.8125 0 11.4833 0 8.95V3L8 0L16 3V8.95C16 11.4833 15.25 13.8125 13.75 15.9375C12.25 18.0625 10.3333 19.4167 8 20Z" fill="#1E1E20"/>
</svg>
