<svg width="20" height="18" viewBox="0 0 20 18" fill="none" xmlns="http://www.w3.org/2000/svg">
<path d="M13.1041 9.77214L12.1874 8.85547C12.5485 7.86936 12.361 7.04991 11.6249 6.39714C10.8888 5.74436 10.0902 5.57769 9.22908 5.89714L8.31242 4.98047C8.54853 4.82769 8.81242 4.71658 9.10408 4.64714C9.39575 4.57769 9.69436 4.54297 9.99992 4.54297C10.986 4.54297 11.8228 4.88672 12.5103 5.57422C13.1978 6.26172 13.5416 7.09852 13.5416 8.08464C13.5416 8.39019 13.5034 8.69227 13.427 8.99089C13.3506 9.2895 13.243 9.54991 13.1041 9.77214ZM15.7916 12.4596L14.9583 11.6263C15.6388 11.1263 16.2326 10.5673 16.7395 9.94922C17.2464 9.33116 17.618 8.70964 17.8541 8.08464C17.1596 6.54297 16.118 5.32422 14.7291 4.42839C13.3402 3.53255 11.8333 3.08464 10.2083 3.08464C9.62492 3.08464 9.0277 3.14019 8.41658 3.2513C7.80547 3.36241 7.32631 3.49436 6.97908 3.64714L6.02075 2.66797C6.50686 2.44575 7.12839 2.2513 7.88533 2.08464C8.64228 1.91797 9.38186 1.83464 10.1041 1.83464C12.0902 1.83464 13.9062 2.40061 15.552 3.53255C17.1978 4.6645 18.4027 6.18186 19.1666 8.08464C18.8055 8.97353 18.3402 9.78603 17.7708 10.5221C17.2013 11.2582 16.5416 11.9041 15.7916 12.4596ZM16.9999 17.168L13.4999 13.7305C13.0138 13.9249 12.4652 14.0742 11.8541 14.1784C11.243 14.2826 10.6249 14.3346 9.99992 14.3346C7.97214 14.3346 6.13186 13.7687 4.47908 12.6367C2.82631 11.5048 1.61103 9.98741 0.833252 8.08464C1.11103 7.36241 1.49645 6.65755 1.9895 5.97005C2.48256 5.28255 3.08325 4.6263 3.79159 4.0013L1.16659 1.3763L2.04159 0.480469L17.8124 16.2513L16.9999 17.168ZM4.64575 4.8763C4.13186 5.2513 3.63533 5.74436 3.15617 6.35547C2.677 6.96658 2.33325 7.54297 2.12492 8.08464C2.83325 9.6263 3.89922 10.8451 5.32283 11.7409C6.74645 12.6367 8.36103 13.0846 10.1666 13.0846C10.6249 13.0846 11.0763 13.0569 11.5208 13.0013C11.9652 12.9457 12.2985 12.8624 12.5208 12.7513L11.1874 11.418C11.0346 11.4874 10.8471 11.5395 10.6249 11.5742C10.4027 11.6089 10.1944 11.6263 9.99992 11.6263C9.0277 11.6263 8.19436 11.286 7.49992 10.6055C6.80547 9.92491 6.45825 9.08464 6.45825 8.08464C6.45825 7.8763 6.47561 7.66797 6.51033 7.45964C6.54506 7.2513 6.59714 7.0638 6.66658 6.89714L4.64575 4.8763Z" fill="#1E1E20"/>
</svg>
